<svg width="25" height="24" viewBox="0 0 25 24" fill="none" xmlns="http://www.w3.org/2000/svg">
<path d="M0.199951 6C0.199951 2.68629 2.88624 0 6.19995 0H18.1999C21.5137 0 24.1999 2.68629 24.1999 6V18C24.1999 21.3137 21.5137 24 18.1999 24H6.19995C2.88624 24 0.199951 21.3137 0.199951 18V6Z" fill="#45152C"/>
<g clip-path="url(#clip0_5485_7777)">
<path d="M16.6201 17H7.14724C6.896 17 6.65506 16.9012 6.47741 16.7254C6.29975 16.5496 6.19995 16.3111 6.19995 16.0625V7.9375C6.19995 7.68886 6.29975 7.4504 6.47741 7.27459C6.65506 7.09877 6.896 7 7.14724 7C7.39848 7 7.63942 7.09877 7.81708 7.27459C7.99473 7.4504 8.09453 7.68886 8.09453 7.9375V15.125H16.6201C16.8714 15.125 17.1123 15.2238 17.29 15.3996C17.4676 15.5754 17.5674 15.8139 17.5674 16.0625C17.5674 16.3111 17.4676 16.5496 17.29 16.7254C17.1123 16.9012 16.8714 17 16.6201 17Z" fill="#E74694"/>
<path d="M9.67335 14.5C9.49742 14.5 9.32498 14.4515 9.17533 14.36C9.02568 14.2685 8.90474 14.1375 8.82606 13.9818C8.74739 13.826 8.71409 13.6517 8.72988 13.4783C8.74568 13.3049 8.80996 13.1393 8.91551 13L10.8101 10.5C10.9554 10.3083 11.1693 10.1789 11.408 10.1385C11.6466 10.098 11.8919 10.1496 12.0934 10.2825L13.1613 10.9869L14.5449 8.70562C14.6109 8.59683 14.6984 8.5024 14.8023 8.42807C14.9061 8.35373 15.0242 8.30103 15.1492 8.27316C15.2743 8.24529 15.4038 8.24282 15.5298 8.26591C15.6558 8.28901 15.7758 8.33717 15.8825 8.4075L17.7771 9.6575C17.9865 9.79541 18.1319 10.01 18.1814 10.254C18.2309 10.498 18.1804 10.7515 18.0411 10.9587C17.9017 11.1659 17.6849 11.3099 17.4383 11.3589C17.1917 11.4079 16.9356 11.3579 16.7262 11.22L15.6583 10.5156L14.2746 12.7969C14.2087 12.9057 14.1212 13.0001 14.0173 13.0744C13.9134 13.1488 13.7954 13.2015 13.6704 13.2293C13.5453 13.2572 13.4158 13.2597 13.2898 13.2366C13.1638 13.2135 13.0438 13.1653 12.9371 13.095L11.7883 12.3369L10.4312 14.125C10.3429 14.2414 10.2285 14.3359 10.097 14.401C9.96545 14.4661 9.82041 14.5 9.67335 14.5Z" fill="#E74694"/>
</g>
<defs>
<clipPath id="clip0_5485_7777">
<rect width="12" height="12" fill="white" transform="translate(6.19995 6)"/>
</clipPath>
</defs>
</svg>
